<svg xmlns="http://www.w3.org/2000/svg" viewBox="0 0 500 500"><g id="freepik--Floor--inject-12"><ellipse id="freepik--floor--inject-12" cx="250" cy="389.03" rx="230.07" ry="103.52" style="fill:#fafafa"></ellipse></g><g id="freepik--Window--inject-12"><g id="freepik--window--inject-12"><path d="M473.48,112.8c0-32.38-21.32-70.93-47.63-86.12-13.92-8-26.45-7.91-35.16-1.22-10.82,4.5-17.75,16.95-17.75,35.4V248.65l95.25,55,5.29-3.06Z" style="fill:#e6e6e6"></path><path d="M468.19,303.65V115.85c0-32.37-21.33-70.93-47.63-86.11s-47.62-1.26-47.62,31.12V248.65Z" style="fill:#f5f5f5"></path><path d="M463,115.86V294.62l-84.83-49V60.87c0-16.18,5.69-27.35,15.26-30.86a19.67,19.67,0,0,1,6.95-1.2c5.42,0,11.33,1.82,17.6,5.44C442.79,48.58,463,85.19,463,115.86Z" style="fill:#e0e0e0"></path><polygon points="378.15 245.64 383.53 242.54 462.98 288.42 462.98 294.62 378.15 245.64" style="fill:#ebebeb"></polygon><path d="M463,115.86V288.42l-79.45-45.88,0-184.79c0-12.85,3.61-22.55,9.9-27.74a19.67,19.67,0,0,1,6.95-1.2c5.42,0,11.33,1.82,17.6,5.44C442.79,48.58,463,85.19,463,115.86Z" style="fill:#fff"></path><polygon points="423.17 271.63 417.96 268.63 417.96 32.37 423.17 32.37 423.17 271.63" style="fill:#f5f5f5"></polygon><path d="M428.38,41.78V268.63l-5.21,3v-234C424.94,38.9,426.67,40.28,428.38,41.78Z" style="fill:#e0e0e0"></path><polygon points="378.15 208.89 417.96 231.87 417.96 237.98 378.15 215 378.15 208.89" style="fill:#f5f5f5"></polygon><polygon points="383.53 205.79 378.15 208.89 417.96 231.87 417.96 225.76 383.53 205.79" style="fill:#ebebeb"></polygon><polygon points="423.17 234.88 462.98 257.86 462.98 263.97 423.17 240.99 423.17 234.88" style="fill:#f5f5f5"></polygon><polygon points="428.55 231.78 423.17 234.88 462.98 257.86 462.98 251.75 428.55 231.78" style="fill:#ebebeb"></polygon><polygon points="378.15 72.47 417.96 95.45 417.96 101.56 378.15 78.58 378.15 72.47" style="fill:#f5f5f5"></polygon><polygon points="383.53 69.37 378.15 72.47 417.96 95.45 417.96 89.34 383.53 69.37" style="fill:#ebebeb"></polygon><polygon points="423.17 98.45 462.98 121.44 462.98 127.55 423.17 104.57 423.17 98.45" style="fill:#f5f5f5"></polygon><polygon points="428.55 95.36 423.17 98.45 462.98 121.44 462.98 115.33 428.55 95.36" style="fill:#ebebeb"></polygon></g></g><g id="freepik--Pictures--inject-12"><g id="freepik--pictures--inject-12"><g id="freepik--Picture--inject-12"><g id="freepik--Frame--inject-12"><polygon points="36.56 115.28 38.7 116.55 82.44 91.29 80.31 90.02 36.56 115.28" style="fill:#fafafa"></polygon><polygon points="80.31 90.02 38.7 114.04 38.7 70.46 80.31 46.45 80.31 90.02" style="fill:#fff"></polygon><path d="M86.47,38.23,34.67,68.14v55.38l51.8-29.91Zm-4,53.06L38.7,116.55V70.46L82.45,45.2Z" style="fill:#f0f0f0"></path><polygon points="82.44 91.29 80.31 90.02 80.31 46.45 82.45 45.2 82.44 91.29" style="fill:#e0e0e0"></polygon><polygon points="86.47 38.23 84.31 36.99 32.51 66.9 34.67 68.14 86.47 38.23" style="fill:#fafafa"></polygon><polygon points="32.51 66.9 34.67 68.14 34.67 123.52 32.51 122.28 32.51 66.9" style="fill:#e0e0e0"></polygon></g><g id="freepik--Land--inject-12"><polygon points="78.69 88.72 40.32 110.87 40.32 99.79 49.91 77.64 55.89 83.18 53.74 92.46 66.99 64.13 78.69 77.64 78.69 88.72" style="fill:#f0f0f0"></polygon><path d="M55.53,66.94a6.28,6.28,0,0,0-2.84,4.92c0,1.81,1.27,2.54,2.84,1.64a6.28,6.28,0,0,0,2.84-4.92C58.37,66.77,57.1,66,55.53,66.94Z" style="fill:#f0f0f0"></path></g></g><g id="freepik--picture--inject-12"><g id="freepik--frame--inject-12"><polygon points="110.27 99.26 112.4 100.53 156.15 75.27 154.02 74 110.27 99.26" style="fill:#fafafa"></polygon><polygon points="154.02 74 112.41 98.02 112.41 54.44 154.02 30.43 154.02 74" style="fill:#fff"></polygon><path d="M160.18,22.21l-51.8,29.91V107.5l51.8-29.91Zm-4,53.06L112.4,100.53V54.44l43.74-25.26Z" style="fill:#f0f0f0"></path><polygon points="156.15 75.27 154.02 74 154.02 30.43 156.15 29.18 156.15 75.27" style="fill:#e0e0e0"></polygon><polygon points="160.18 22.21 158.01 20.98 106.22 50.88 108.38 52.12 160.18 22.21" style="fill:#fafafa"></polygon><polygon points="106.22 50.88 108.38 52.12 108.38 107.5 106.22 106.26 106.22 50.88" style="fill:#e0e0e0"></polygon></g><g id="freepik--land--inject-12"><polygon points="152.4 72.69 114.03 94.85 114.03 83.77 123.62 61.62 129.6 67.16 127.45 76.44 140.7 48.11 152.4 61.62 152.4 72.69" style="fill:#f0f0f0"></polygon><path d="M129.24,50.92a6.28,6.28,0,0,0-2.84,4.92c0,1.81,1.27,2.54,2.84,1.64a6.3,6.3,0,0,0,2.83-4.92C132.07,50.75,130.8,50,129.24,50.92Z" style="fill:#f0f0f0"></path></g></g></g></g><g id="freepik--Plant--inject-12"><g id="freepik--Plants--inject-12"><path d="M59.33,418.41a.48.48,0,0,1-.24-.33C55.24,398.54,37,386,29.18,380.65c-1.26-.87-2.26-1.55-2.9-2.06a9.73,9.73,0,0,1-4-8.7,8.37,8.37,0,0,1,5.22-6.54c7.23-3.21,19.93,4.86,28.91,18.36,12.58,18.92,9.18,34.19,9.14,34.34a.48.48,0,0,1-.31.35l-5.52,2.05a.63.63,0,0,1-.19,0A.57.57,0,0,1,59.33,418.41Zm-3.72-36.16c-8.72-13.11-20.88-21-27.69-18A7.32,7.32,0,0,0,23.28,370a8.74,8.74,0,0,0,3.61,7.81c.62.49,1.6,1.16,2.85,2,7.82,5.37,26,17.88,30.2,37.48l4.72-1.75C65,413.53,67.06,399.47,55.61,382.25Z" style="fill:#BA68C8"></path><path d="M62.68,417.31h.07a.49.49,0,0,0,.45-.53c-2-23.08-20.21-43.63-31.41-47.09a.48.48,0,0,0-.61.32.49.49,0,0,0,.32.62c11.08,3.42,28.86,24.34,30.72,46.23A.49.49,0,0,0,62.68,417.31Z" style="fill:#BA68C8"></path><path d="M65.07,416.43a.51.51,0,0,0,.21,0L69,414.84a.54.54,0,0,0,.3-.36c0-.23,4.55-22.94-3.51-52.07-4.11-14.84-14.44-28.67-24.56-32.87-4.87-2-9.43-1.87-13.56.46a7.41,7.41,0,0,0-4.07,5.14c-1,5.77,5.68,13.52,12.76,21.72,5,5.74,10.08,11.68,12.7,17.12a.49.49,0,0,0,.65.23.49.49,0,0,0,.23-.66C47.27,368,42.1,362,37.11,356.22c-6.93-8-13.47-15.6-12.54-20.92a6.43,6.43,0,0,1,3.58-4.44c3.86-2.17,8.13-2.31,12.7-.41,9.87,4.1,20,17.65,24,32.22,7.54,27.26,4,48.8,3.54,51.36l-3.48,1.46a.49.49,0,0,0,.17.94Z" style="fill:#BA68C8"></path><path d="M64.57,402.32h0a.51.51,0,0,0,.48-.51c-.79-35.94-23.62-62.42-30-66.71a.49.49,0,0,0-.68.14.49.49,0,0,0,.13.68c6.3,4.23,28.8,30.36,29.57,65.91A.51.51,0,0,0,64.57,402.32Z" style="fill:#BA68C8"></path></g></g><g id="freepik--Shadows--inject-12"><ellipse id="freepik--Shadow--inject-12" cx="360.95" cy="413.95" rx="84.13" ry="48.57" style="fill:#e0e0e0"></ellipse><ellipse id="freepik--shadow--inject-12" cx="110.62" cy="420.91" rx="52.66" ry="30.4" style="fill:#e0e0e0"></ellipse><polygon id="freepik--shadow--inject-12" points="98.35 366.65 74.88 376.88 95.9 391.38 111.23 383.38 118.95 390.62 112.21 393.49 140.88 412.67 165.35 399.8 188.88 415.51 217.87 400.83 203.9 390.42 239.36 389.83 233.82 397.46 270.17 409.18 276.3 393.48 288.94 401.18 317.97 386.08 301.39 375.42 310.76 364.62 287.09 354.57 300.14 346.58 277.08 331.47 271.26 334.42 253.97 328.13 264.89 321.74 241.42 306.62 222.86 316.94 194.48 299.58 168.76 311.07 172.41 313.25 152.27 311.88 151.54 320.87 134.09 317.88 130.84 339.45 150.33 344.63 119.55 352.6 101.76 342.17 81.25 354.01 98.35 366.65" style="fill:#e0e0e0"></polygon></g><g id="freepik--Envelopes--inject-12"><g id="freepik--Mails--inject-12"><polygon points="113.72 389.83 141.28 407.61 165.59 395.13 188.56 409.94 217.74 394.96 203.95 386.07 237.19 384.97 232.05 392.93 267.6 404.54 275.01 386.83 288.79 395.72 317.97 380.74 299.59 368.89 309.59 358.44 286.35 349.08 300.94 341.59 277.97 326.78 273.11 329.28 254.46 322.88 264.19 317.89 241.22 303.08 231.49 308.07 212.58 307.14 194.21 295.29 168.68 307.28 173.95 310.71 155.57 309.8 155.18 316.86 131.67 312.97 127.92 337.04 141.77 339.71 115.87 346.16 102.09 337.27 82.64 347.26 94.52 356.63 91.28 364.1 76.7 371.59 98.64 385.75 111.97 378.91 118.58 387.34 113.72 389.83" style="fill:#BA68C8"></polygon><polygon points="113.72 389.83 141.28 407.61 165.59 395.13 188.56 409.94 217.74 394.96 203.95 386.07 237.19 384.97 232.05 392.93 267.6 404.54 275.01 386.83 288.79 395.72 317.97 380.74 299.59 368.89 309.59 358.44 286.35 349.08 300.94 341.59 277.97 326.78 273.11 329.28 254.46 322.88 264.19 317.89 241.22 303.08 231.49 308.07 212.58 307.14 194.21 295.29 168.68 307.28 173.95 310.71 155.57 309.8 155.18 316.86 131.67 312.97 127.92 337.04 141.77 339.71 115.87 346.16 102.09 337.27 82.64 347.26 94.52 356.63 91.28 364.1 76.7 371.59 98.64 385.75 111.97 378.91 118.58 387.34 113.72 389.83" style="fill:#fff;opacity:0.65"></polygon><g style="opacity:0.2"><polygon points="273.11 329.28 278.38 331.16 264.41 356.92 263.02 356.13 276.6 331.75 254.46 322.88 273.11 329.28" style="fill:#BA68C8"></polygon><polygon points="241.22 303.08 264.19 317.89 243.63 328.26 242.8 327.25 262 317.69 240.95 304.02 207.31 321.74 223.24 334.37 205.69 321.37 241.22 303.08" style="fill:#BA68C8"></polygon><polygon points="207.31 321.74 239.59 319.56 241.22 303.08 240.78 321.15 207.31 321.74" style="fill:#BA68C8"></polygon><path d="M173.22,375.75c-.14-.1-.27-.22-.4-.33l-19.9,10.21,21.31-9.53A1.5,1.5,0,0,1,173.22,375.75Z" style="fill:#BA68C8"></path><path d="M180.84,371.3l-4.53,2.33-.84,1.19c-.21.3-.42.58-.64.86a2.06,2.06,0,0,1-.25.26l6.76-3,34.11,22-26.81,13.17-36.37-21.48,36.29,23.35,29.18-15Z" style="fill:#BA68C8"></path><polygon points="215.45 394.9 183.73 388.81 181.34 372.91 181.88 390.09 215.45 394.9" style="fill:#BA68C8"></polygon><polygon points="115.87 346.16 107.02 348.67 112.95 371.99 150.33 363.52 111.51 373.3 104.91 348.34 115.87 346.16" style="fill:#BA68C8"></polygon><polygon points="141.77 339.71 146.33 338.7 148.68 350.63 147.71 351.55 145.57 339.95 130.81 358.83 107.48 349.63 130.38 356.88 144.58 339.92 141.77 339.71" style="fill:#BA68C8"></polygon><polygon points="118.58 387.34 154.46 369.83 167.75 378.02 169.82 378.07 154.5 368.31 118.58 387.34" style="fill:#BA68C8"></polygon><polygon points="113.72 389.83 149.82 384.62 154.46 369.83 151.28 386.16 113.72 389.83" style="fill:#BA68C8"></polygon><polygon points="111.97 378.91 98.73 361.53 107.34 355.44 100.92 361.59 118.58 387.34 111.97 378.91" style="fill:#BA68C8"></polygon><polygon points="91.28 364.1 104.69 357.31 100.51 360.27 91.28 364.1" style="fill:#BA68C8"></polygon><polygon points="76.7 371.59 105.52 369.47 106.38 370.9 76.7 371.59" style="fill:#BA68C8"></polygon><polygon points="94.52 356.63 99.09 360.48 99.79 360.24 94.52 356.63" style="fill:#BA68C8"></polygon><polygon points="102.09 337.27 102.89 351.84 107.41 352.62 107.69 354.57 101.76 352.95 102.09 337.27" style="fill:#BA68C8"></polygon><polygon points="155.18 316.86 171.87 319.47 168.48 344.52 146.3 339.96 167.31 342.82 170.56 320.53 155.18 316.86" style="fill:#BA68C8"></polygon><polygon points="131.67 312.97 150.11 330.67 171.23 320.02 150.07 332.27 131.67 312.97" style="fill:#BA68C8"></polygon><polygon points="173.95 310.71 177.45 312.9 176.59 313.06 173.95 310.71" style="fill:#BA68C8"></polygon><polygon points="216.12 351.76 199.14 362.36 230.35 381.89 246.24 369.44 247.09 365.88 229.24 355.06 245.94 366.81 245.41 369.42 230.22 380.46 200.78 362.4 216.12 351.76" style="fill:#BA68C8"></polygon><polygon points="245.94 366.81 223.44 365.3 218.72 354.41 217.5 352.81 222.24 366.8 246.29 367.38 245.94 366.81" style="fill:#BA68C8"></polygon><path d="M275.78,384.74l-.11,0-8.55,18.56-32.66-11.44,10.79-19.33-13.2,20.43,35.55,11.61,8.3-19.77Z" style="fill:#BA68C8"></path><polygon points="234.46 391.83 262.67 380.33 263.93 381.25 234.46 391.83" style="fill:#BA68C8"></polygon><polygon points="271.54 343.14 307.8 358.74 291.93 375.63 284.18 372.63 292.11 376.71 309.59 358.44 271.54 343.14" style="fill:#BA68C8"></polygon><polygon points="317.97 380.74 287.91 377.6 286.84 373.51 284.92 373.01 286.69 379.71 317.97 380.74" style="fill:#BA68C8"></polygon><polygon points="308.52 359.08 277.74 357.27 269.92 344.69 269.37 345.94 276.72 358.47 308.52 359.08" style="fill:#BA68C8"></polygon><polygon points="212.58 307.14 221.46 313.25 223.15 312.38 212.58 307.14" style="fill:#BA68C8"></polygon><polyline points="185.16 319.65 200.98 329.57 211.46 325.65 212.12 326.14 200.73 330.88 184.69 319.79" style="fill:#BA68C8"></polyline><polygon points="168.76 335.82 189.18 331.62 201.08 343.64 172.99 350.29 174.15 350.74 203.3 344.31 189.61 330.61 168.76 335.82" style="fill:#BA68C8"></polygon><polygon points="203.95 386.07 202 363.24 203.81 365.29 203.95 386.07" style="fill:#BA68C8"></polygon><polygon points="183.99 348.57 202.19 355.4 211.02 344.95 202.61 356.69 181.93 349.02 183.99 348.57" style="fill:#BA68C8"></polygon></g><polygon points="207.9 341.46 222.91 358.25 254.72 342.23 241.18 326.32 210.24 340.21 241.46 325.09 256.85 342.66 222.49 359.75 207.9 341.46" style="fill:#BA68C8"></polygon><polygon points="207.9 341.46 234.9 341.58 241.42 325.86 235.86 342.99 207.9 341.46" style="fill:#BA68C8"></polygon><polygon points="189.83 359.42 174.02 375.46 143.03 357.9 157.33 342.68 187.55 358.05 157.11 341.43 140.88 358.23 174.36 376.98 189.83 359.42" style="fill:#BA68C8"></polygon><polygon points="189.83 359.42 162.85 358.23 157.11 342.2 161.82 359.58 189.83 359.42" style="fill:#BA68C8"></polygon><polygon points="251.54 352.62 287.09 363.49 280.87 387.24 243.74 375.18 250.14 353.1 245.02 374.53 280.14 385.56 285.66 364 251.54 352.62" style="fill:#BA68C8"></polygon><polygon points="250.65 352.6 264 372.51 286.29 363.86 263.41 374.15 250.65 352.6" style="fill:#BA68C8"></polygon><polygon points="193.57 308.09 165.94 316.01 192.6 309.41 189.29 313.91 164.31 316.38 190.15 314.73 192.93 309.32 193.57 309.17 206.56 312.9 177.78 320.82 164.31 316.38 177.52 321.79 209.14 312.96 193.57 308.09" style="fill:#BA68C8"></polygon><g style="opacity:0.30000000000000004"><polygon points="207.9 341.46 222.91 358.25 254.72 342.23 241.18 326.32 210.24 340.21 241.46 325.09 256.85 342.66 222.49 359.75 207.9 341.46" style="fill:#fff"></polygon><polygon points="207.9 341.46 234.9 341.58 241.42 325.86 235.86 342.99 207.9 341.46" style="fill:#fff"></polygon><polygon points="189.83 359.42 174.02 375.46 143.03 357.9 157.33 342.68 187.55 358.05 157.11 341.43 140.88 358.23 174.36 376.98 189.83 359.42" style="fill:#fff"></polygon><polygon points="189.83 359.42 162.85 358.23 157.11 342.2 161.82 359.58 189.83 359.42" style="fill:#fff"></polygon><polygon points="251.54 352.62 287.09 363.49 280.87 387.24 243.74 375.18 250.14 353.1 245.02 374.53 280.14 385.56 285.66 364 251.54 352.62" style="fill:#fff"></polygon><polygon points="250.65 352.6 264 372.51 286.29 363.86 263.41 374.15 250.65 352.6" style="fill:#fff"></polygon><polygon points="193.57 308.09 165.94 316.01 192.6 309.41 189.29 313.91 164.31 316.38 190.15 314.73 192.93 309.32 193.57 309.17 206.56 312.9 177.78 320.82 164.31 316.38 177.52 321.79 209.14 312.96 193.57 308.09" style="fill:#fff"></polygon></g><polygon points="94.52 356.63 100.51 360.27 91.28 364.1 94.52 356.63" style="fill:#BA68C8;opacity:0.25"></polygon><polygon points="210.12 346.21 220.69 362.23 233.25 357.41 247.09 365.88 251.63 348.15 256.77 345.66 254.54 343.81 222.49 359.75 207.9 341.46 210.12 346.21" style="fill:#BA68C8;opacity:0.25"></polygon><polygon points="189.83 359.42 187.17 371.46 203.58 381.72 202.44 368.43 197.61 364.67 200.48 363.2 230.35 381.89 245.13 370.31 243.74 375.18 237.19 384.97 203.95 386.07 180.84 371.3 177.89 372.97 189.83 359.42" style="fill:#BA68C8;opacity:0.25"></polygon><polygon points="152.92 385.63 148.49 387.69 159.18 395.54 141.23 404.61 113.72 389.83 141.28 407.61 165.59 395.13 152.27 386.59 152.92 385.63" style="fill:#BA68C8;opacity:0.25"></polygon><polygon points="106.9 355.86 109.31 375.41 114.81 382.15 148.21 369.68 151.21 371.42 154.46 369.83 167.75 378.02 172.18 375.75 142.94 359.38 139.71 360.92 145.9 364.64 111.51 373.3 106.9 355.86" style="fill:#BA68C8;opacity:0.25"></polygon><polygon points="276.06 332.71 281.79 335.8 276.42 345.11 274.19 344.28 267.29 357.44 263.02 356.13 276.06 332.71" style="fill:#BA68C8;opacity:0.25"></polygon><polygon points="156.5 342.06 146.59 340.02 148.6 350.24 156.5 342.06" style="fill:#BA68C8;opacity:0.25"></polygon><polygon points="178.38 353.04 183.46 351.48 203.36 358.77 211.02 344.95 202.19 355.4 190.46 351 202.36 348.26 199.56 345.28 174.15 350.74 178.38 353.04" style="fill:#BA68C8;opacity:0.25"></polygon><polygon points="182.62 320.36 185.16 319.65 200.98 329.57 208.08 326.91 204.96 324.2 207.86 322.99 222.86 334.09 218.82 336.05 211.6 330.15 200.59 335.01 184.58 321.96 177.17 324.29 172.75 322.88 170.86 335.3 169.69 335.59 171.87 319.47 177.52 321.79 182.62 320.36" style="fill:#BA68C8;opacity:0.25"></polygon></g></g><g id="freepik--Mailbox--inject-12"><g id="freepik--mailbox--inject-12"><path d="M176.71,127l-19.35-11.18c-.86-.5-1.49-.62-1.83-.42l-2.36,1.36c-.41.23-.4.93.12,2l4.71,9.75-3.52,3.23a2.73,2.73,0,0,0,.51,4.65l19.36,11.18,2.36-1.37Z" style="fill:#BA68C8"></path><path d="M176.71,127l-19.35-11.18c-.86-.5-1.49-.62-1.83-.42l-2.36,1.36c-.41.23-.4.93.12,2l4.71,9.75-3.52,3.23a2.73,2.73,0,0,0,.51,4.65l19.36,11.18,2.36-1.37Z" style="fill:#fff;opacity:0.5"></path><path d="M155,117.18c-1.89-1.1-2.65-.39-1.7,1.58l4.71,9.75-3.52,3.23a2.73,2.73,0,0,0,.51,4.65l19.36,11.18V128.35Z" style="fill:#BA68C8"></path><path d="M176.63,193.26a2.28,2.28,0,0,1-2.28-2.27V122a2.28,2.28,0,1,1,4.55,0v69A2.27,2.27,0,0,1,176.63,193.26Z" style="fill:#e0e0e0"></path><path d="M85,419.41v-4h1A15.85,15.85,0,0,1,92.51,409c10-5.78,26.22-5.78,36.22,0a15.75,15.75,0,0,1,6.5,6.38h1v3.89c.08,3.85-2.4,7.71-7.48,10.64-10,5.77-26.22,5.77-36.22,0C87.49,427,85,423.21,85,419.41Z" style="fill:#263238"></path><ellipse cx="110.62" cy="415.39" rx="25.61" ry="14.79" style="fill:#455a64"></ellipse><path d="M117.21,216.43V413.64a3.27,3.27,0,0,1-1.93,2.69,10.27,10.27,0,0,1-9.32,0,3.27,3.27,0,0,1-1.93-2.69V216.43Z" style="fill:#37474f"></path><polygon points="104.03 233.06 104.03 245.99 117.21 253.59 117.21 240.69 104.03 233.06" style="fill:#263238"></polygon><path d="M160.15,208.93,184.53,223a2,2,0,0,1-.47.5l-42.65,24.61c-.36.21-.65,0-.65-.38V217a48.11,48.11,0,0,1,3.56-17.23Z" style="fill:#37474f"></path><path d="M184.72,188.74v34.38L144.33,199.8c0-.11.08-.23.13-.34,4.33-10.82,11.63-20,19.54-24.54a18.5,18.5,0,0,1,9.14-2.83C180.28,172.09,184.72,178.47,184.72,188.74Z" style="fill:#263238"></path><path d="M179.07,171a12.6,12.6,0,0,0-5.9-1.41l0,2.51a10.17,10.17,0,0,1,4.81,1.15c4.27,2.28,6.77,7.79,6.77,15.5v33.63a1.45,1.45,0,0,1-.66,1.13l1,2.33a1.64,1.64,0,0,0,.22-.14,4.11,4.11,0,0,0,.9-.87h0a4.71,4.71,0,0,0,1-2.75V188.74C187.23,179.82,184.08,173.62,179.07,171Z" style="fill:#455a64"></path><polygon points="140.42 251.6 185.05 225.83 184.06 223.5 141.41 248.13 140.42 251.6" style="fill:#455a64"></polygon><path d="M228.58,261.51v-3.08h-.29v.44a13.76,13.76,0,0,0-.8-2.48c-1.62-3.77-5-7.37-10.2-10.37l-28.86-16.66a4.83,4.83,0,0,0-4.35,0L140,254.84a6.34,6.34,0,0,1-1.41-1.55v3.09h0a1.53,1.53,0,0,0,.9,1.26l28.86,16.66c7.73,4.46,17.83,6.65,27.61,6.52,8.46-.11,16.69-2,23-5.59,6.48-3.72,9.68-8.67,9.68-13.72Z" style="fill:#263238"></path><path d="M227.49,256.39c-1.62-3.77-5-7.37-10.2-10.37l-28.86-16.66a4.83,4.83,0,0,0-4.35,0L140,254.84l28.35,16.37c7.73,4.46,17.83,6.65,27.61,6.52,8.46-.11,16.69-2,23-5.59,5.82-3.35,9-7.67,9.59-12.18A13.05,13.05,0,0,0,227.49,256.39Z" style="fill:#455a64"></path><path d="M228.48,260a13.05,13.05,0,0,0-1-3.57c-1.62-3.77-5-7.37-10.2-10.37l-28.86-16.66a4.83,4.83,0,0,0-4.35,0L140,254.84l-.51-.29a1.33,1.33,0,0,1,0-2.51l44.63-25.77a4.83,4.83,0,0,1,4.35,0l28.86,16.66c5.19,3,8.58,6.6,10.2,10.37a13.19,13.19,0,0,1,1,3.79A12.52,12.52,0,0,1,228.48,260Z" style="fill:#37474f"></path><path d="M179.07,171c-4.32-2.26-10-1.87-16.32,1.76-7.05,4-13.39,11.38-17.84,19.8a62.45,62.45,0,0,0-2.79,6A50.55,50.55,0,0,0,138.24,217v35.11a4.52,4.52,0,0,1-2.17-.53L67.65,212a4.86,4.86,0,0,1-2.17-3.77V174.86c0-16.65,11-36.47,24.49-44.29,6.41-3.7,12.24-4,16.61-1.55v0Z" style="fill:#455a64"></path><path d="M142.12,198.53A50.55,50.55,0,0,0,138.24,217v35.11a5.16,5.16,0,0,1-.79-.08c0-2,0-13.3,0-35,0-25.84,19.87-42.25,25.33-44.28-7.05,4-13.39,11.38-17.84,19.8A62.45,62.45,0,0,0,142.12,198.53Z" style="fill:#37474f"></path><path d="M162.75,172.74c-7,4-13.39,11.38-17.85,19.8a61.18,61.18,0,0,0-2.77,6A50.55,50.55,0,0,0,138.25,217v35.1l.38,0a4.14,4.14,0,0,0,1.79-.5l1-3.48c-.36.21-.65,0-.65-.37V217a47.87,47.87,0,0,1,3.57-17.22c0-.11.08-.23.13-.34a58.9,58.9,0,0,1,3-6.32c4.33-8,10.26-14.59,16.57-18.22a18.5,18.5,0,0,1,9.14-2.83l0-2.51A21,21,0,0,0,162.75,172.74Z" style="fill:#455a64"></path><path d="M213.14,237.55,198,234.25l9.12,11.45L178.9,267.45,169.26,256v8.88l-27.85-17.27-.65-.39V217a47.89,47.89,0,0,1,3.56-17.22h0c0-.11.08-.23.13-.34,4.33-10.82,11.63-20,19.54-24.54a27.48,27.48,0,0,1,2.47-1.26h0L182,177.24l29.45,6.81-3.2,15.68,10.89,3Z" style="fill:#BA68C8"></path><path d="M213.14,237.55,198,234.25l9.12,11.45L178.9,267.45,169.26,256v8.88l-27.85-17.27-.65-.39V217a47.89,47.89,0,0,1,3.56-17.22h0c0-.11.08-.23.13-.34,4.33-10.82,11.63-20,19.54-24.54a27.48,27.48,0,0,1,2.47-1.26h0L182,177.24l29.45,6.81-3.2,15.68,10.89,3Z" style="fill:#fff;opacity:0.65"></path><g style="opacity:0.5"><polygon points="169.26 256.01 169.26 235.25 140.76 216.73 170.02 234.83 169.26 256.01" style="fill:#BA68C8"></polygon><polygon points="169.53 235.19 147.59 242.15 140.76 229.19 140.76 231.88 147.27 244.06 169.53 235.19" style="fill:#BA68C8"></polygon><polygon points="169.53 236.54 181.88 245.22 196.69 217.83 158.69 194.13 146.6 216.17 159.34 195.87 194.64 218.34 181.12 243.32 169.53 236.54" style="fill:#BA68C8"></polygon><polygon points="158.69 194.13 167.9 223.12 196.69 217.83 168.7 221.62 158.69 194.13" style="fill:#BA68C8"></polygon><polygon points="197.97 234.25 191.1 224.89 204.3 245.22 183.4 242.42 205.2 247.16 207.09 245.7 197.97 234.25" style="fill:#BA68C8"></polygon><polygon points="208.29 199.73 205.21 214.98 181.94 209.56 205.72 216.84 208.29 199.73" style="fill:#BA68C8"></polygon><polygon points="159.97 177.68 176.63 192.18 169.53 200.89 170.02 202.13 179.07 192.18 159.97 177.68" style="fill:#BA68C8"></polygon><polygon points="211.49 184.05 181.21 196.13 177.69 191.63 176.71 193.25 180.84 198.8 211.49 184.05" style="fill:#BA68C8"></polygon><path d="M206.63,209.46l12.55-6.77-12.42,5.72C206.72,208.76,206.67,209.11,206.63,209.46Z" style="fill:#BA68C8"></path><path d="M198.07,213.85c-.69-.17-1.39-.32-2.08-.48l-3.71,1.71,1.82,1.13,4.24-2.28Z" style="fill:#BA68C8"></path><path d="M177.69,191.63l-31.26,3.43c-.43.82-.87,1.8-1.32,2.85Z" style="fill:#BA68C8"></path></g><polygon points="169.26 256.01 172.59 259.96 172.59 244.06 184.22 252.13 195.25 230.54 193.6 228.3 199.23 217.26 208.29 219.68 211.49 200.6 208.29 199.73 205.21 214.98 184.22 210.04 196.69 217.83 181.88 245.22 169.95 236.83 169.26 256.01" style="fill:#BA68C8;opacity:0.25"></polygon><path d="M174.35,203.89l10.7-12.46L164,174.92a31.24,31.24,0,0,0-4,2.76l19.1,14.5-8.51,9.35Z" style="fill:#BA68C8;opacity:0.25"></path><path d="M171.65,237.78v-4.33L140.9,213.82c-.09.91-.13,1.89-.14,2.91L170,234.83l-.07,2Z" style="fill:#BA68C8;opacity:0.25"></path><path d="M166.49,173.65h0a27.48,27.48,0,0,0-2.47,1.26c-7.91,4.55-15.21,13.72-19.54,24.54-.05.11-.09.23-.13.34h0A47.89,47.89,0,0,0,140.76,217v30.22l.65.39,4.69,2.91V231c0-9.94-.69-15.86,3.57-28.27,3.56-10.37,14.77-24.61,24.15-27.35Z" style="fill:#BA68C8;opacity:0.25"></path></g></g><g id="freepik--speech-bubble--inject-12"><g id="freepik--speech-bubble--inject-12"><g id="freepik--message-icon--inject-12"><path d="M229.39,140.26l-6.08-3.51a.59.59,0,0,1-.29-.25l-1.12-2,3.62-2.08-.11.31Z" style="fill:#e0e0e0"></path><path d="M274.91,46a6.52,6.52,0,0,0-2.94-5.1l-2.4-1.38a6.48,6.48,0,0,0-5.88,0L207.12,72.15a6.49,6.49,0,0,0-2.94,5.1v54.56a6.49,6.49,0,0,0,2.94,5.1l2.4,1.38a6.48,6.48,0,0,0,5.88,0l9.57-5.53,4.21,7.29a.62.62,0,0,0,1.13-.11l4.45-12.84,37.48-21.68c2.65-1.51,2.67-3,2.67-4.9Z" style="fill:#fafafa"></path><path d="M266.63,39.87a5,5,0,0,1,2.39.56l2.4,1.38A5.49,5.49,0,0,1,273.81,46v54.56c0,1.77,0,2.74-2.12,4l-37.48,21.68-.35.2-.13.39-4.12,11.87-3.69-6.4-.55-1-1,.55-9.57,5.53a4.85,4.85,0,0,1-2.39.56,4.92,4.92,0,0,1-2.4-.56L207.67,136a5.45,5.45,0,0,1-2.39-4.15V77.25a5.46,5.46,0,0,1,2.39-4.15l56.57-32.67a5,5,0,0,1,2.39-.56m0-1.09a6,6,0,0,0-2.94.7L207.12,72.15a6.49,6.49,0,0,0-2.94,5.1v54.56a6.49,6.49,0,0,0,2.94,5.1l2.4,1.38a6.44,6.44,0,0,0,5.88,0l9.57-5.53,4.21,7.29a.61.61,0,0,0,.54.31.6.6,0,0,0,.59-.42l4.45-12.84,37.48-21.68c2.65-1.51,2.67-3,2.67-4.9V46a6.52,6.52,0,0,0-2.94-5.1l-2.4-1.38a6,6,0,0,0-2.94-.7Z" style="fill:#e0e0e0"></path><path d="M204.18,131.81a6.52,6.52,0,0,0,2.94,5.1l2.4,1.38a6.54,6.54,0,0,0,5.38.25c-1.39.52-2.44-.27-2.44-1.94V82a6,6,0,0,1,.86-2.9L205,74.35a6,6,0,0,0-.86,2.9Z" style="fill:#e0e0e0"></path><path d="M274.81,45.12c-.34-1.25-1.48-1.64-2.84-.86L215.4,76.94a5.77,5.77,0,0,0-2.07,2.19l-8.28-4.77a5.87,5.87,0,0,1,2.07-2.2l56.56-32.68a6.57,6.57,0,0,1,5.89,0l2.4,1.39A6.43,6.43,0,0,1,274.81,45.12Z" style="fill:#f0f0f0"></path><path d="M218.29,85.69a2,2,0,0,1,.92-1.58l46.73-27a2,2,0,0,1,1.83,0l1,.6a2,2,0,0,1,.92,1.58V95.12a2.05,2.05,0,0,1-.92,1.59l-46.74,27a2,2,0,0,1-1.82,0l-1-.59a2,2,0,0,1-.92-1.58Z" style="fill:#BA68C8"></path><path d="M218.29,85.69a2,2,0,0,1,.92-1.58l46.73-27a2,2,0,0,1,1.83,0l1,.6a2,2,0,0,1,.92,1.58V95.12a2.05,2.05,0,0,1-.92,1.59l-46.74,27a2,2,0,0,1-1.82,0l-1-.59a2,2,0,0,1-.92-1.58Z" style="fill:#fff;opacity:0.5"></path><path d="M222.58,87.11l-4-2.32a1.84,1.84,0,0,0-.27.9v35.83a2,2,0,0,0,.92,1.58l1,.59a2,2,0,0,0,1.82,0l.52-.29Z" style="fill:#BA68C8"></path><path d="M269.72,59.3V95.13a1.81,1.81,0,0,1-.29.92,2.06,2.06,0,0,1-.53.6l0,0-.06,0-46.74,27h0a.64.64,0,0,1-.63.07.63.63,0,0,1-.28-.6V87.34a.8.8,0,0,1,1-.81l19.65,4.67,2.57.61a1.7,1.7,0,0,0,1.65-.61l3-4.15L269.1,59.1C269.44,58.63,269.72,58.72,269.72,59.3Z" style="fill:#BA68C8"></path><path d="M269.72,59.3V95.13a1.81,1.81,0,0,1-.29.92,2.06,2.06,0,0,1-.53.6l0,0-.06,0-46.74,27h0a.64.64,0,0,1-.63.07.63.63,0,0,1-.28-.6V87.34a.8.8,0,0,1,1-.81l19.65,4.67,2.57.61a1.7,1.7,0,0,0,1.65-.61l3-4.15L269.1,59.1C269.44,58.63,269.72,58.72,269.72,59.3Z" style="fill:#fff;opacity:0.2"></path><path d="M268.8,96.71l.06,0,0,0a2.06,2.06,0,0,0,.53-.6,2,2,0,0,0,.29-.91L249,87.05l13.85,13.08Z" style="fill:#BA68C8"></path><path d="M268.8,96.71l.06,0,0,0a2.06,2.06,0,0,0,.53-.6,2,2,0,0,0,.29-.91L249,87.05l13.85,13.08Z" style="fill:#BA68C8"></path><path d="M268.8,96.71l.06,0,0,0a2.06,2.06,0,0,0,.53-.6,2,2,0,0,0,.29-.91L249,87.05l13.85,13.08Z" style="opacity:0.2"></path><path d="M221.15,123.16a.63.63,0,0,0,.28.6.64.64,0,0,0,.63-.07h0l16.1-9.29,3.67-23.2-20.68,31.37Z" style="fill:#BA68C8"></path><path d="M221.15,123.16a.63.63,0,0,0,.28.6.64.64,0,0,0,.63-.07h0l16.1-9.29,3.67-23.2-20.68,31.37Z" style="fill:#BA68C8"></path><path d="M221.15,123.16a.63.63,0,0,0,.28.6.64.64,0,0,0,.63-.07h0l16.1-9.29,3.67-23.2-20.68,31.37Z" style="opacity:0.2"></path><path d="M269.43,96.05a2.06,2.06,0,0,1-.53.6l0,0-46.8,27h0a.64.64,0,0,1-.63.07L243.82,88a3.51,3.51,0,0,1,4.4-1.36Z" style="fill:#BA68C8"></path><path d="M269.43,96.05a2.06,2.06,0,0,1-.53.6l0,0-46.8,27h0a.64.64,0,0,1-.63.07L243.82,88a3.51,3.51,0,0,1,4.4-1.36Z" style="fill:#fff;opacity:0.2"></path><path d="M221.53,86.48l21.27,9.39a3.47,3.47,0,0,0,4.35-1.34L269.48,58.8Z" style="fill:#BA68C8"></path><path d="M221.53,86.48l21.27,9.39a3.47,3.47,0,0,0,4.35-1.34L269.48,58.8Z" style="opacity:0.2"></path><path d="M221.53,86.48l21.41,8a3.48,3.48,0,0,0,4.14-1.36l22.4-34.32Z" style="fill:#BA68C8"></path><path d="M221.53,86.48l21.41,8a3.48,3.48,0,0,0,4.14-1.36l22.4-34.32Z" style="fill:#fff;opacity:0.2"></path></g></g></g><g id="freepik--Number--inject-12"><path d="M301.33,35.46c-1.63-1-4-.85-6.58.65L271.31,49.66c-4.93,2.84-8.92,9.47-8.92,14.8,0,2.51.89,4.28,2.34,5.16,1,.58,4.71,2.73,5.69,3.29,1.62.91,3.91.75,6.46-.72l23.44-13.55c4.92-2.84,8.92-9.47,8.92-14.8,0-2.5-.89-4.27-2.33-5.15C305.94,38.1,302.24,36,301.33,35.46Z" style="fill:#37474f"></path><path d="M276.88,52.88l23.44-13.55c4.92-2.84,8.92-.82,8.92,4.51s-4,12-8.92,14.8L276.88,72.19C272,75,268,73,268,67.68S272,55.72,276.88,52.88Z" style="fill:#455a64"></path><path d="M275.05,61.81a.42.42,0,0,1-.06-.29.89.89,0,0,1,.11-.35l2.29-4.1c.05-.1.11-.19.17-.29a.63.63,0,0,1,.2-.2l.82-.47a.15.15,0,0,1,.2,0,.34.34,0,0,1,.08.26V66.86a.78.78,0,0,1-.08.36.58.58,0,0,1-.2.25l-.85.49a.16.16,0,0,1-.2,0,.37.37,0,0,1-.09-.27v-8l-1.5,2.66a.37.37,0,0,1-.2.21.17.17,0,0,1-.2,0Z" style="fill:#fff"></path><path d="M280.27,64.66a1.48,1.48,0,0,1,.13-.51.78.78,0,0,1,.32-.39l.92-.52a.11.11,0,0,1,.16,0,.29.29,0,0,1,.07.21s0,.08,0,.12l-.7,3.09a2.37,2.37,0,0,1-.14.43.76.76,0,0,1-.31.35l-.48.28a.13.13,0,0,1-.16,0,.34.34,0,0,1-.07-.22v0Z" style="fill:#fff"></path><path d="M283.62,64.12a.61.61,0,0,1,0-.14,1,1,0,0,1,0-.1L285.06,60a2.31,2.31,0,0,1-1.1.35,1.39,1.39,0,0,1-.87-.28,2,2,0,0,1-.58-.89,4.24,4.24,0,0,1-.22-1.48,6.8,6.8,0,0,1,.22-1.74,7.17,7.17,0,0,1,.59-1.57,6.08,6.08,0,0,1,.9-1.31,4.63,4.63,0,0,1,1.1-.91,2.55,2.55,0,0,1,1.11-.37,1.41,1.41,0,0,1,.9.27,2,2,0,0,1,.59.89,4.3,4.3,0,0,1,.22,1.49,5.53,5.53,0,0,1-.07.92q-.08.45-.18.87c-.07.28-.15.55-.24.82l-.27.77-2,5.49-.11.28a.56.56,0,0,1-.22.24l-1,.54a.15.15,0,0,1-.2,0A.37.37,0,0,1,283.62,64.12Zm.1-7.23c0,.6.13,1,.39,1.16a.9.9,0,0,0,1-.1,2.65,2.65,0,0,0,1-1.05,3.31,3.31,0,0,0,.39-1.61,1.35,1.35,0,0,0-.39-1.16.89.89,0,0,0-1,.08,2.62,2.62,0,0,0-1,1.06A3.35,3.35,0,0,0,283.72,56.89Z" style="fill:#fff"></path><path d="M288.78,57.73A7,7,0,0,1,289,56c.14-.51.3-1,.49-1.53l2-5.5.11-.28a.56.56,0,0,1,.22-.24l.95-.54a.15.15,0,0,1,.2,0,.38.38,0,0,1,.08.26.32.32,0,0,1,0,.14l0,.1-1.31,3.64a2.69,2.69,0,0,1,1.14-.35,1.4,1.4,0,0,1,.9.3,1.91,1.91,0,0,1,.58.91,4.61,4.61,0,0,1,.21,1.49,6.88,6.88,0,0,1-.22,1.75,7.19,7.19,0,0,1-.59,1.61,6.28,6.28,0,0,1-.9,1.34,4.53,4.53,0,0,1-1.16,1,2.43,2.43,0,0,1-1.16.38,1.33,1.33,0,0,1-.91-.3,2,2,0,0,1-.59-.92A4.7,4.7,0,0,1,288.78,57.73Zm4.3-2.48a1.52,1.52,0,0,0-.37-1.17c-.25-.23-.6-.22-1.06.05a2.58,2.58,0,0,0-1.06,1.17,3.65,3.65,0,0,0-.38,1.6,1.6,1.6,0,0,0,.38,1.19c.25.24.6.23,1.06,0a2.6,2.6,0,0,0,1.06-1.18A3.75,3.75,0,0,0,293.08,55.25Z" style="fill:#fff"></path><path d="M298.74,49.46a3.61,3.61,0,0,0,.41-1,4.15,4.15,0,0,0,.09-.79,1.47,1.47,0,0,0-.27-1c-.17-.21-.46-.19-.87,0a2.06,2.06,0,0,0-.85.93,4.88,4.88,0,0,0-.38,1.34,1.27,1.27,0,0,1-.13.39.61.61,0,0,1-.19.22l-.83.48a.2.2,0,0,1-.21,0c-.06-.05-.08-.14-.08-.28a7,7,0,0,1,.24-1.52,8,8,0,0,1,.57-1.46,6,6,0,0,1,.83-1.24,3.63,3.63,0,0,1,1-.88,1.94,1.94,0,0,1,1.15-.33,1.26,1.26,0,0,1,.8.4,2.14,2.14,0,0,1,.47.9,4.43,4.43,0,0,1,.15,1.18c0,.27,0,.53,0,.79a4.32,4.32,0,0,1-.15.82,8,8,0,0,1-.34,1,10.86,10.86,0,0,1-.59,1.2l-1.95,3.86,2.93-1.69a.15.15,0,0,1,.2,0,.33.33,0,0,1,.09.26v1.15a.8.8,0,0,1-.09.36.49.49,0,0,1-.2.24l-4.92,2.84a.15.15,0,0,1-.2,0,.37.37,0,0,1-.08-.26v-1a1.4,1.4,0,0,1,.1-.54,2.52,2.52,0,0,1,.18-.39Z" style="fill:#fff"></path></g><g id="freepik--Character--inject-12"><g id="freepik--character--inject-12"><g id="freepik--Bottom--inject-12"><path d="M406.64,395.18c-1.16-16,.64-28.19-.69-53.11h0c-.12-6.39-.35-13.23-.78-19.31-1.44-20.45-4.59-27.44-4.89-31.39,0,0,.31-35.34-1-80.1-.62-21.05-6.72-27.43-11.6-38.6H329.71c-6.47,27.57-8.32,87.71-8.12,116.12.1,14.49,1.19,72.26.82,78.87-.34,6.33-.52,11.39-3,14-5.19,5.57-13.49,12.93-21.48,17.35.94,2.49,14,3.59,17.83,1.7,6.19-3,16.11-10.74,18.29-12.19,10.57-7,7.78-16.36,7.78-16.36l0-.68c.1-3.52,10-44.4,11.46-56.36,1.5-12.33-1-29.39-1-29.39l8.07-38s3.27,29.42,7.44,47.1c3.38,14.4,9,39,12.78,56.68h0c3.67,20.41,7.59,34.65,8.52,44.87.28,2.44,4.5,26.66,5.64,32.14s13.09,5.63,13.86-3.8C409.06,418.45,406.86,398.19,406.64,395.18Z" style="fill:#ffa8a7"></path><path d="M289.75,406.23c.71.83.4,4.76,2.38,6.31,2.29,1.79,8.86,4.58,17.26,3s12.83-4.51,16.06-7.59,7.75-7.4,11.53-8.48c3.51-1,7.28-2.85,8.36-4s-.42-6.95-.42-6.95Z" style="fill:#263238"></path><path d="M341.81,371.53a1.36,1.36,0,0,1,1.34,1.09c.33,1.35.59,4.14,1.27,6.35.95,3.09,1.82,9.46,1.5,12s-6,4.67-9.65,6.31-7.91,4.95-11.58,8.39-12,7.37-17.48,7.77c-8.41.6-14-1.42-15.84-4.4-2.29-3.69-1.84-6.8,7.59-11.9,1.78-1,8-5.2,10.11-6.73a48.85,48.85,0,0,0,6.31-5.36,37.57,37.57,0,0,0,2.79-3.13,13.4,13.4,0,0,0,2.28-3.33c.09-.26.15-.57.24-.84a14.68,14.68,0,0,0,.5-2.35c.11-.82.14-2,.88-2.56s5.41-.27,6.65-.06c1.44.25,4.7.87,5.62,2.18a7.2,7.2,0,0,1,1,3.52c.06.57.08,1.15.12,1.73,0,.24-.07.69.27.57s.62-1,.73-1.3c.23-.65.37-1.35.63-2a10.31,10.31,0,0,1,1.08-2.15,9.66,9.66,0,0,1,1.45-1.67c.5-.45,1.32-.83,2.22-1.48Z" style="fill:#37474f"></path><path d="M297.44,398c12.23.17,17.55,8.41,18.32,13.12a28.37,28.37,0,0,1-8.55,2.34c-8.41.6-14.33-1.4-16.18-4.38C288.87,405.61,289,401.83,297.44,398Z" style="fill:#fafafa"></path><path d="M316.77,397.91a.59.59,0,0,0,.37-.16.61.61,0,0,0,0-.85c-1.81-2-7.92-5.35-12.32-4.61a.61.61,0,0,0,.19,1.2c4.11-.68,9.81,2.62,11.25,4.22A.58.58,0,0,0,316.77,397.91Z" style="fill:#f0f0f0"></path><path d="M321.85,394.5a.6.6,0,0,0,.37-.15.62.62,0,0,0,0-.86c-1.82-2-7.93-5.35-12.32-4.61a.62.62,0,0,0-.5.7.6.6,0,0,0,.69.5c4.11-.68,9.81,2.63,11.25,4.23A.57.57,0,0,0,321.85,394.5Z" style="fill:#f0f0f0"></path><path d="M326.52,390.68a.61.61,0,0,0,.4-1c-1.81-2-7.93-5.35-12.32-4.6a.6.6,0,0,0-.49.69.59.59,0,0,0,.69.5c4.1-.68,9.81,2.63,11.25,4.23A.57.57,0,0,0,326.52,390.68Z" style="fill:#f0f0f0"></path><path d="M331.09,386.85a.51.51,0,0,0,.36-.15.6.6,0,0,0,.05-.85c-2.5-2.87-8.94-5.35-13.34-4.61a.6.6,0,0,0-.49.69.59.59,0,0,0,.68.5c4-.66,10,1.68,12.26,4.22A.56.56,0,0,0,331.09,386.85Z" style="fill:#f0f0f0"></path><path d="M390.94,432.81c.31,5.46,1.16,9.09,3.1,12.29s5.6,4.21,9.31,3.28,8.45-3.45,9.51-8.17,1.68-7.94.84-13Z" style="fill:#263238"></path><path d="M406.51,393.23c1.53.12,2,7.46,2.86,14.81.94,7.87,3.3,11.13,4.14,17.59,1,7.37-.26,10.67-2.84,15.13s-11.74,8.84-16.25,2.45c-3.68-5.21-3.66-11-3.95-18.35-.35-8.88-.15-12-1-17.73-1.16-8-2-12.06-.66-12.68l.74,5.33c.16.41.5.84.64.18a4.56,4.56,0,0,0,0-1.38c-.22-2,.8-2.2,1.35-2.36,1.2-.34,7.4-.64,8.54-.72s5.2-.25,5.72.41a4.61,4.61,0,0,1,.51,2.13c.13,1.11.39,1.93.42,1.58.07-.8-.08-2.86-.1-3.36s-.1-1.13-.1-1.61S406.54,393.7,406.51,393.23Z" style="fill:#37474f"></path><path d="M413.93,429.9a18.44,18.44,0,0,1-2.85,11.21c-2.59,4.46-12.48,8.85-17,2.47-2.24-3.18-2.84-6.94-3.15-10.78C393.64,427.88,409.67,425.71,413.93,429.9Z" style="fill:#fafafa"></path><path d="M394.27,424.78a.45.45,0,0,0,.19,0c.06,0,7.12-3,14-1.36a.57.57,0,0,0,.68-.42.56.56,0,0,0-.43-.68c-7.27-1.68-14.47,1.31-14.74,1.44a.56.56,0,0,0,.3,1.07Z" style="fill:#f0f0f0"></path><path d="M408.12,417.87a.57.57,0,0,0,.12-1.1c-6.84-2.32-14.44,1.16-14.72,1.31a.57.57,0,0,0-.24.77.59.59,0,0,0,.76.24c.07,0,7.47-3.41,13.84-1.24A.65.65,0,0,0,408.12,417.87Z" style="fill:#f0f0f0"></path><path d="M407.88,412.69a.55.55,0,0,0,.47-.37.56.56,0,0,0-.34-.73c-7.53-2.69-14.74,1.11-15,1.27a.56.56,0,0,0-.19.78.57.57,0,0,0,.77.19c.06,0,7-3.68,14-1.17A.54.54,0,0,0,407.88,412.69Z" style="fill:#f0f0f0"></path><path d="M407.5,407.58a.56.56,0,0,0,.48-.36.58.58,0,0,0-.34-.73c-7.05-2.64-14.81,1.26-15.1,1.43a.56.56,0,0,0,.56,1c.07,0,7.6-3.8,14.15-1.35A.54.54,0,0,0,407.5,407.58Z" style="fill:#ebebeb"></path><path d="M389.2,172.86c6.87,12.51,12,22.74,12.65,60s-.26,51.17-.11,55.66,2.75,12.51,5.05,34.61-.42,48.45-.42,48.45-1.58,3.56-10,4.32c-7.8.7-11.66-2.23-11.66-2.23S374,330.58,371,317.27s-10.71-60.63-10.71-60.63l-5,30.09a103.39,103.39,0,0,1-1,32.28c-3.86,19.15-8.8,35.59-8.8,35.59A39.58,39.58,0,0,1,334,356a25.54,25.54,0,0,1-12.11-3.62s-.62-48-.62-69.93,2.32-75.79,4.34-109.25Z" style="fill:#37474f"></path><path d="M360.31,256.64l-7-42.25s-14.69-1-22.86-9.59c3.32,9.07,15.37,15.43,20.67,16.7l6.22,34.67-2.1,30.56Z" style="fill:#263238"></path><path d="M375.08,179.05a52,52,0,0,1,4.77,10.09A97.79,97.79,0,0,1,383,199.83c.84,3.62,1.54,7.27,2,11a73.75,73.75,0,0,1,.73,11.12c-.89-3.62-1.71-7.21-2.53-10.8s-1.63-7.17-2.5-10.74-1.72-7.13-2.63-10.68S376.19,182.61,375.08,179.05Z" style="fill:#263238"></path><path d="M379.94,180.4a39,39,0,0,1,5,5.64,54,54,0,0,1,4.09,6.34,48.61,48.61,0,0,1,3.1,6.91,30.09,30.09,0,0,1,1.7,7.38L390.48,200c-1.15-2.18-2.28-4.36-3.48-6.5s-2.38-4.31-3.56-6.49S381,182.68,379.94,180.4Z" style="fill:#263238"></path><path d="M371.87,224.86c1.6,11.52,3,23.06,4.49,34.58s2.15,26.55,4.27,37.93S385,320.2,387,331.64s4,22.92,5.73,34.41q-4-17-7.52-34.06c-2.39-11.38-4.64-22.74-6.88-34.19-2.09-11.49-2.66-26.58-3.78-38.15S372.57,236.47,371.87,224.86Z" style="fill:#263238"></path><path d="M333.25,225.81l-1.9,30.31c-.27,5.05-.6,10.1-.83,15.15s-.53,10.1-.45,15.09-.36,42-1.18,62.85c-.72-16.74-.81-52.62-1.16-62.81,0-10.25.9-20.31,1.81-30.42S331.69,235.82,333.25,225.81Z" style="fill:#263238"></path></g><g id="freepik--Top--inject-12"><path d="M341.14,109.06a34.92,34.92,0,0,0-16.66,5.82c-6.15,3.85-36.27,49.57-36.27,49.57s4.71,3,11.88,1.48,26.12-13.83,26.12-13.83Z" style="fill:#f28f8f"></path><path d="M398.3,193.34c-2.51-11.46-5.67-24.29-6-26.8-2-14.57.63-22,1.58-28.35,2.07-13.89-1.9-25.52-5.14-28.26a91.28,91.28,0,0,0-15.26-3.24c-8.19-1-19.47.16-22.52.58-6,.83-9.81,1.79-9.82,1.79a45.61,45.61,0,0,0-9.54,12.28c-3.53,6.29-5.53,11.56-6.15,25-.79,17.16-1.85,35-1.85,47C337.82,202.08,379.94,204,398.3,193.34Z" style="fill:#263238"></path><g id="freepik--Head--inject-12"><path d="M333.19,91.25c2.65-8.74,4.88-14,4.88-14l.7-2.36c-4.83-2.27-7.61-12.16-6.19-17.51,3.1-11.64,15.1-16,22.89-16.42,14.76-.81,22,3,23.49,10.65,2-.17,4.75,1.44,6.41,3.7,3.63,4.94,3.26,27.9,9.44,34.93,0,0-13,7.2-24.37,7.71S344.81,99.61,333.19,91.25Z" style="fill:#37474f"></path><path d="M377.74,89.85c2.68.39,4.74-1,6.28-2.85,3.42-4.07,3.59-8.09,1.82-10.69-1.45-2.14-4.88-3.4-7.19-1.83-2.47,1.69-2.5,3-3.38,4.81s-4.59,1.82-5.76-5.37c-1.09-6.71-2.36-14.54-5.77-17.45-5.43,5.56-9.07,4.58-15,5.1-3.55.3-11.92,1.64-11.32,9.24.05.6-.57,3-.83,5.35-1.1,10.22,1.76,19.21,4.59,21.61s6,2.76,10.9,2.79l-.17,6.94s-8,17.75-7.54,28.93c0,0,4.07-7.09,16.23-17.72l13.21-11.55.69-19.24A4.19,4.19,0,0,0,377.74,89.85Z" style="fill:#ffa8a7"></path><path d="M340.34,69.72l4.11-3.42a2.57,2.57,0,0,0-3.7-.43A2.82,2.82,0,0,0,340.34,69.72Z" style="fill:#263238"></path><path d="M357.79,66.79l4.89,3a2.75,2.75,0,0,0-.85-3.9A3,3,0,0,0,357.79,66.79Z" style="fill:#263238"></path><path d="M352.8,70.62,351,83.06l-6.44-2C346.86,76,349.81,71.86,352.8,70.62Z" style="fill:#f28f8f"></path><path d="M361.21,74.73a2,2,0,1,1-1.81-2.11A2,2,0,0,1,361.21,74.73Z" style="fill:#263238"></path><path d="M345.13,73.63a2,2,0,1,1-1.8-2.11A2,2,0,0,1,345.13,73.63Z" style="fill:#263238"></path><path d="M352,100.56c4.53-.47,9.3-1.13,13.82-3.12,1.61-.7,3.75-3.65,5.48-6.93,0,0-1.18,6.44-4.63,8.68-5.26,3.42-14.75,4.23-14.75,4.23Z" style="fill:#f28f8f"></path></g><path d="M323.84,100s.58-.33.68-1.62,0-2.17.05-3.6.57-3.84,1.87-4.16,2.12,2.66,2.29,5.09a11,11,0,0,0,2,6.54c1.77,2.67,3.32,6.13,1.81,9.3Z" style="fill:#f28f8f"></path><path d="M314.82,95.59c.6-2.41.36-5.41.51-7.32a21.22,21.22,0,0,1,1.34-5.47c.69-1.92,1.17-4.42,1.83-4.7s1.84.42,1.87,1.92c0,0,.83-1.14,1.52-2.32s1.15-2.63,2.2-2.94,1.65,1.38,1.33,2.58-.58,1.89-.58,1.89,1.07.43.25,2.6a10.71,10.71,0,0,1-1.35,2.45,10.34,10.34,0,0,1-1,3.84,20.06,20.06,0,0,1-1.22,4.18c.43,1.1,1.4,2.4,1.48,4.34s-.21,2.42,2.13,4.65c1.58,1.5,4.24,3.19,5.76,5.29s2.6,4.34.89,7.24-3,5-4.63,8c-1.2,2.29-2.36,5.3-7.28,16.13-3.83,8.41-4.12,9.46-6,12.53-2.67,4.29-5.71,9.84-12.87,13.06s-15.54,2.58-14.71-3.55c1-7.34,2.92-13.13,6-17.18a76.61,76.61,0,0,1,8.39-9.22c3.42-3.45,6-7,10.22-11.89s6.95-9.5,6.87-11.09c-.13-2.69-1.51-6.53-2.19-8.51C314.51,99.12,314,99.25,314.82,95.59Z" style="fill:#ffa8a7"></path><path d="M332.58,111.51c-.28,1.48-1.26,2.64-2,4s-1.47,2.59-2.18,3.9-1.41,2.63-2.08,4-1.38,3.25-2,4.6c.77-1.28,1.54-3.17,2.27-4.47s1.44-2.61,2.16-3.91l2.14-3.92,1.08-2A5.34,5.34,0,0,0,332.58,111.51Z" style="fill:#f28f8f"></path><path d="M320.37,80a11.8,11.8,0,0,1-.48,2,18.89,18.89,0,0,1-.69,1.87l0,.1,0,.13a7.14,7.14,0,0,1,.13,1.06,7.89,7.89,0,0,1,0,1.09,6.65,6.65,0,0,1-.54,2.09l-.07.16.07.13a7.58,7.58,0,0,1,.34.76,7.71,7.71,0,0,1,.24.82,8,8,0,0,1,.16.85,8.67,8.67,0,0,1,.06.89,5.17,5.17,0,0,0,.2-1.8,5.7,5.7,0,0,0-.13-.91,5.46,5.46,0,0,0-.28-.9v.3a6.16,6.16,0,0,0,.72-2.31,7,7,0,0,0,0-1.21,5.8,5.8,0,0,0-.21-1.21v.22a12,12,0,0,0,.5-2A6.84,6.84,0,0,0,320.37,80Z" style="fill:#f28f8f"></path><path d="M324.84,79.23a5.69,5.69,0,0,1-.68.93,6.57,6.57,0,0,1-.82.77l0,0,0,.11a9.37,9.37,0,0,1-.81,2.26A6.38,6.38,0,0,1,321,85.21l-.18.17.06.23a7.47,7.47,0,0,1,.21,1.31,12.52,12.52,0,0,1,0,1.37,13.18,13.18,0,0,1-.17,1.39c-.06.46-.19.92-.3,1.39a8.66,8.66,0,0,0,.63-1.3,7.55,7.55,0,0,0,.39-1.41,7.94,7.94,0,0,0,.14-1.46,5.71,5.71,0,0,0-.18-1.51l-.11.4a6.11,6.11,0,0,0,.92-1,6.55,6.55,0,0,0,.67-1.14,7.84,7.84,0,0,0,.44-1.23,8,8,0,0,0,.21-1.3l-.08.16a5.61,5.61,0,0,0,.72-1A4,4,0,0,0,324.84,79.23Z" style="fill:#f28f8f"></path><path d="M321.05,94.93a5.76,5.76,0,0,0,.77,2.48,8.36,8.36,0,0,0,1.63,2c-.19-.39-.43-.75-.65-1.11s-.44-.72-.64-1.09A17.93,17.93,0,0,1,321.05,94.93Z" style="fill:#f28f8f"></path><path d="M328.92,104.36a10.79,10.79,0,0,1,.76,4.53,8.45,8.45,0,0,1-.46,2.21,17.78,17.78,0,0,1-1,2.15,6.28,6.28,0,0,0,2.2-4.3A6.3,6.3,0,0,0,328.92,104.36Z" style="fill:#f28f8f"></path><path d="M355.83,88.9a1.72,1.72,0,1,1-3.42-.27,1.72,1.72,0,0,1,3.42.27Z" style="fill:#b16668"></path><g id="freepik--Tablet--inject-12"><path d="M299.83,147.64h0l1.38-1.29v0a1.62,1.62,0,0,1,1.46-.22l16.93,3.94a5.72,5.72,0,0,1,3.61,3.1l12.4,31.65a1.46,1.46,0,0,1-.14,1.65h0L334,187.82v0a1.6,1.6,0,0,1-1.47.23l-16.93-3.93A5.72,5.72,0,0,1,312,181l-12.41-31.65A1.4,1.4,0,0,1,299.83,147.64Z" style="fill:#455a64"></path><path d="M319.91,152.2a5.55,5.55,0,0,1,1.89,2.29l12.4,31.63a1.52,1.52,0,0,1-.09,1.62l1.34-1.24v0a1.45,1.45,0,0,0,.14-1.64l-12.41-31.65a5.44,5.44,0,0,0-1.74-2.17Z" style="fill:#455a64"></path><path d="M334.2,186.13l-12.41-31.65a5.68,5.68,0,0,0-3.6-3.1l-16.93-3.94c-1.45-.33-2.18.52-1.64,1.9,2.44,6.22,10,25.43,12.4,31.65a5.76,5.76,0,0,0,3.61,3.11L332.56,188C334,188.36,334.74,187.51,334.2,186.13Z" style="fill:#263238"></path><path d="M322,161.21l-2.32-5.92a1,1,0,0,0-.67-.58l-2.93-.67c-.27-.06-.41.09-.3.35.45,1.17,1.86,4.76,2.32,5.93a1,1,0,0,0,.67.58l2.93.67C322,161.63,322.14,161.47,322,161.21Z" style="fill:#455a64"></path><path d="M319.64,156.73a2.69,2.69,0,0,0-1.72-1.43c-.7-.16-1.07.22-.82.85a2.69,2.69,0,0,0,1.72,1.43C319.52,157.74,319.88,157.36,319.64,156.73Z" style="fill:#263238"></path><path d="M320.77,159.72a2.69,2.69,0,0,0-1.72-1.43c-.7-.16-1.06.22-.82.85a2.69,2.69,0,0,0,1.72,1.43C320.65,160.73,321,160.35,320.77,159.72Z" style="fill:#263238"></path></g><path d="M375.59,170l5.4-33.53s.27-20,7.77-26.54c8.69,2.39,11.23,7.48,13.46,12.88,2.88,7,2.65,13.63.11,31.47-2.16,15.13-4.81,24.72-7,30.24-2.73,6.84-8.75,7.42-19.21,6.89s-17-1.5-31.53-3.44c-7-.94-10.64-2.48-16.42-4.27a21.81,21.81,0,0,1-6.23-2.82,12.92,12.92,0,0,1-4.32-4.47,3.4,3.4,0,0,0-.6-1,7.64,7.64,0,0,0-.87-.73,7.83,7.83,0,0,1-1.62-1.42,11.83,11.83,0,0,1-1-2,9.18,9.18,0,0,0-.44-1,5.63,5.63,0,0,0-.68-.85,8.08,8.08,0,0,1-1.75-2.25,1.49,1.49,0,0,1,.15-1.44s-1-.76-1.28-1a8.19,8.19,0,0,1-1.2-1.3.82.82,0,0,1-.21-.64.74.74,0,0,1,.22-.33c1.58-1.51,3.71-.89,5.5-.2,4.66,1.8,7.2,3.89,12.06,5.17,2.65.7,3.31.84,4.24.54,1.27-.8-3.54-5.28-3.92-9-.19-1.86,1.51-4.15,3-2,3.12,4.47,5.82,5.64,8.15,8.19s4.52,4.11,9.45,5.76C352,172.61,375.59,170,375.59,170Z" style="fill:#ffa8a7"></path><path d="M375.59,170c5.4-1.35,12.07.52,12.07.52a21.76,21.76,0,0,0-11.79-2.27Z" style="fill:#f28f8f"></path><path d="M310.91,166a34.27,34.27,0,0,0,3,2.23c1,.71,2.06,1.39,3.09,2.09.51.34,1,.71,1.55,1s1.09.63,1.65.91c1.11.57,2.24,1.09,3.4,1.55l-1.62-.93c-.54-.31-1.08-.62-1.61-.94s-1.07-.63-1.58-1-1-.7-1.53-1.05c-1-.69-2.09-1.36-3.16-2Z" style="fill:#f28f8f"></path><path d="M313,170.15a15.5,15.5,0,0,0,2,2.1c.73.62,1.5,1.2,2.27,1.77s1.58,1.09,2.4,1.59a22.11,22.11,0,0,0,2.54,1.36c-.79-.55-1.56-1.12-2.34-1.67l-2.33-1.66L315.23,172C314.47,171.4,313.71,170.78,313,170.15Z" style="fill:#f28f8f"></path></g></g></g></svg>